# xmcd CD database file
#
# Track frame offsets:
#	150
#	19295
#	45013
#	73277
#	95856
#	119592
#	143096
#	168445
#
# Disc length: 2415 seconds
#
# Revision: 0
# Processed by: cddbd v1.5.2PL0 Copyright (c) Steve Scherf et al.
# Submitted via: CDex 1.51
#
DISCID=70096d08
DTITLE=Mathias Eick - Ravensburg
DYEAR=2018
DGENRE=Jazz
TTITLE0=Family
TTITLE1=Children
TTITLE2=Friends
TTITLE3=August
TTITLE4=Parents
TTITLE5=Girlfriend
TTITLE6=Ravensburg
TTITLE7=For My Grandmothers
EXTD=YEAR: 2018
EXTT0=
EXTT1=
EXTT2=
EXTT3=
EXTT4=
EXTT5=
EXTT6=
EXTT7=
PLAYORDER=
